<svg width="37" height="44" viewBox="0 0 37 44" fill="none" xmlns="http://www.w3.org/2000/svg">
<path d="M33.23 31.1292H12.135V19.7441C12.135 19.3291 11.8 18.9941 11.385 18.9941H0.75C0.335 18.9941 0 19.3291 0 19.7441V31.1292C0 37.8342 5.43501 43.2642 12.135 43.2642H33.23C33.645 43.2642 33.98 42.9242 33.98 42.5142V31.8792C33.98 31.4642 33.645 31.1292 33.23 31.1292Z" fill="#F7F5EE"/>
<path d="M35.405 12.14H26.275C25.33 12.14 24.525 11.56 24.19 10.74C24.145 10.35 24.08 9.96498 24 9.58998C23.97 9.44498 23.935 9.29999 23.9 9.15999C23.355 7.00499 22.235 5.07499 20.715 3.55499C18.52 1.35999 15.485 0 12.135 0H0.75C0.335 0 0 0.335 0 0.75V15.285C0 15.7 0.335 16.035 0.75 16.035H11.385C11.8 16.035 12.135 15.695 12.135 15.285V12.14H21.88C23.075 12.205 24.02 13.19 24.02 14.395V23.525C24.02 23.94 24.36 24.275 24.77 24.275H35.405C35.82 24.275 36.155 23.94 36.155 23.525V12.89C36.155 12.475 35.82 12.14 35.405 12.14Z" fill="#F7F5EE"/>
</svg>
